<svg width="289" height="315" viewBox="0 0 289 315" fill="none" xmlns="http://www.w3.org/2000/svg">
<path d="M7.5 92.6968L144.193 8.79996L280.886 92.6968V233.249L144.193 306.107L7.5 233.249V161.5V92.6968Z" stroke="#202330" stroke-width="15"/>
<path d="M154.997 163.634L141.068 123.524L127.873 163.634H154.997ZM130.334 189.659V195H103.105V189.659L109.493 188.14C110.261 187.966 110.907 187.652 111.431 187.198C111.989 186.744 112.391 186.133 112.635 185.365L137.612 112.946H148.818L174.843 185.365C175.122 186.133 175.524 186.744 176.047 187.198C176.571 187.617 177.217 187.931 177.985 188.14L184.007 189.659V195H153.007V189.659L163.375 187.774L157.196 170.023H125.778L119.966 187.774L130.334 189.659Z" fill="#202330"/>
</svg>

